<?xml version="1.0" standalone="no"?><!DOCTYPE svg PUBLIC "-//W3C//DTD SVG 1.1//EN" "http://www.w3.org/Graphics/SVG/1.1/DTD/svg11.dtd"><svg t="1563161339767" class="icon" viewBox="0 0 1024 1024" version="1.1" xmlns="http://www.w3.org/2000/svg" p-id="12717" width="128" height="128" xmlns:xlink="http://www.w3.org/1999/xlink"><defs><style type="text/css"></style></defs><path d="M914.8 374.1c-8.6-18.6-27.8-29.8-57.1-33.3-22-2.6-50.6-1-85 4.8l0.5 2.7a331.43 331.43 0 0 0-42.8-52.6c-30.3-30.3-65.6-54.1-104.9-70.7-40.7-17.3-84-26-128.5-26s-87.8 8.7-128.5 25.9c-39.3 16.6-74.6 40.4-104.9 70.7s-54.1 65.6-70.7 104.9c-17.2 40.7-25.9 84-25.9 128.5 0 30.2 4 59.8 12 88.4-26 21.2-45.8 41-59.1 58.9-20.2 27.2-25.7 51.3-16.4 71.5 9.4 20.5 31.7 31.9 66.2 34.1 4.2 0.3 8.6 0.4 13.2 0.4 24.2 0 53.8-3.7 88.3-10.9l1.5-0.3c28.2 26.2 60.4 47.1 95.9 62.1C409.2 850.3 452.5 859 497 859s87.8-8.7 128.5-25.9c39.3-16.6 74.6-40.4 104.9-70.7 30.3-30.3 54.1-65.6 70.7-104.9 17.2-40.7 25.9-84 25.9-128.5 0-4.8-0.1-9.7-0.3-14.5 31.8-24.7 55.7-47.6 71-68 20.7-27.6 26.5-52 17.1-72.4zM497 247c143 0 261.4 107 279.6 245.1-62.1 45-145.7 92.4-237.1 134.6-89.5 41.2-177.8 73.3-251.4 91.5C242.7 668.1 215 601.7 215 529c0-155.5 126.5-282 282-282zM179.1 734.2c-21.5-0.4-30.2-4.8-32-6.6-0.2-2.3 1.9-11 13.8-26.1 8.5-10.8 20.6-23 35.5-36.1 10.3 22.8 23.2 44.1 38.3 63.9-21.5 3.5-40.4 5.2-55.6 4.9zM497 811c-62.2 0-119.7-20.2-166.3-54.4 69.5-19.6 148.7-49.4 228.9-86.3 82.1-37.8 157.9-79.8 218.7-120.8C767.7 695.4 645.6 811 497 811z m358.3-388.3c-8.8 10.8-21 22.9-35.9 35.7-4.3-19.8-10.4-39.1-18.4-57.9-1.4-3.4-2.9-6.7-4.5-10 20.6-2.8 38-3.6 51.7-2.4 16.8 1.4 21.9 5.3 22.8 6.1 0.3 2.5-2.1 12-15.7 28.5z" fill="#1296db" p-id="12718"></path><path d="M460.7 361.8c1.3 0 2.7-0.1 4-0.4 16-3.3 32.5-4.4 49-3.4 11 0.7 20.5-7.7 21.2-18.7 0.7-11-7.7-20.5-18.7-21.2-20-1.2-40 0.2-59.4 4.1-10.8 2.2-17.8 12.8-15.6 23.6 1.9 9.5 10.2 16 19.5 16zM293.7 542.4c0.7 0.1 1.5 0.1 2.2 0.1 10.1 0 18.7-7.6 19.9-17.8 6.6-59.7 41.7-113 94.1-142.7 9.6-5.4 13-17.7 7.5-27.3-5.4-9.6-17.7-13-27.3-7.5-63.5 36-106.2 100.7-114.2 173.1-1.1 11 6.8 20.9 17.8 22.1zM756.1 238c29.2 0 53-23.8 53-53s-23.8-53-53-53-53 23.8-53 53 23.8 53 53 53z m0-76c12.7 0 23 10.3 23 23s-10.3 23-23 23-23-10.3-23-23 10.3-23 23-23z" fill="#1296db" p-id="12719"></path></svg>